<svg width="162" height="166" viewBox="0 0 162 166" fill="none" xmlns="http://www.w3.org/2000/svg">
<path fill-rule="evenodd" clip-rule="evenodd" d="M41.25 45C44.2047 45 47.1305 44.418 49.8604 43.2873C52.5902 42.1566 55.0706 40.4992 57.1599 38.4099C59.2492 36.3206 60.9066 33.8402 62.0373 31.1104C63.168 28.3806 63.75 25.4547 63.75 22.5C63.75 19.5453 63.168 16.6194 62.0373 13.8896C60.9066 11.1598 59.2492 8.67942 57.1599 6.5901C55.0706 4.50078 52.5902 2.84344 49.8604 1.71271C47.1305 0.581979 44.2047 -4.40291e-08 41.25 0C35.2826 8.89208e-08 29.5597 2.37053 25.3401 6.5901C21.1205 10.8097 18.75 16.5326 18.75 22.5C18.75 28.4674 21.1205 34.1903 25.3401 38.4099C29.5597 42.6295 35.2826 45 41.25 45ZM41.25 56.25C26.1365 56.2298 11.5109 61.5987 0 71.3925V120H18.75V165H63.75V99.6375H82.5V71.3925C70.9891 61.5987 56.3635 56.2298 41.25 56.25ZM121.913 88.245C115.945 88.245 110.222 90.6155 106.003 94.8351C101.783 99.0547 99.4125 104.778 99.4125 110.745V112.717H82.5375V165.12H161.288V112.717H144.413V110.745C144.413 104.778 142.042 99.0547 137.822 94.8351C133.603 90.6155 127.88 88.245 121.913 88.245ZM129.413 112.717V110.745C129.413 108.756 128.622 106.848 127.216 105.442C125.809 104.035 123.902 103.245 121.913 103.245C119.923 103.245 118.016 104.035 116.609 105.442C115.203 106.848 114.413 108.756 114.413 110.745V112.717H129.413Z" fill="#DADADA"/>
</svg>
