<svg width="150" height="150" viewBox="0 0 150 150" fill="none" xmlns="http://www.w3.org/2000/svg">
<path d="M75 60C82.9565 60 90.5871 56.8393 96.2132 51.2132C101.839 45.5871 105 37.9565 105 30C105 22.0435 101.839 14.4129 96.2132 8.7868C90.5871 3.16071 82.9565 0 75 0C67.0435 0 59.4129 3.16071 53.7868 8.7868C48.1607 14.4129 45 22.0435 45 30C45 37.9565 48.1607 45.5871 53.7868 51.2132C59.4129 56.8393 67.0435 60 75 60ZM26.25 82.5C31.2228 82.5 35.9919 80.5246 39.5083 77.0083C43.0246 73.4919 45 68.7228 45 63.75C45 58.7772 43.0246 54.0081 39.5083 50.4917C35.9919 46.9754 31.2228 45 26.25 45C21.2772 45 16.5081 46.9754 12.9917 50.4917C9.47544 54.0081 7.5 58.7772 7.5 63.75C7.5 68.7228 9.47544 73.4919 12.9917 77.0083C16.5081 80.5246 21.2772 82.5 26.25 82.5ZM142.5 63.75C142.5 68.7228 140.525 73.4919 137.008 77.0083C133.492 80.5246 128.723 82.5 123.75 82.5C118.777 82.5 114.008 80.5246 110.492 77.0083C106.975 73.4919 105 68.7228 105 63.75C105 58.7772 106.975 54.0081 110.492 50.4917C114.008 46.9754 118.777 45 123.75 45C128.723 45 133.492 46.9754 137.008 50.4917C140.525 54.0081 142.5 58.7772 142.5 63.75ZM75 67.5C84.9456 67.5 94.4839 71.4509 101.517 78.4835C108.549 85.5161 112.5 95.0544 112.5 105V150H37.5V105C37.5 95.0544 41.4509 85.5161 48.4835 78.4835C55.5161 71.4509 65.0544 67.5 75 67.5ZM22.5 105C22.5 99.8025 23.25 94.785 24.66 90.045L23.385 90.15C16.9566 90.8558 11.015 93.9098 6.69947 98.7264C2.38396 103.543 -0.00167819 109.783 8.85731e-07 116.25V150H22.5V105ZM150 150V116.25C150.001 109.563 147.449 103.127 142.867 98.2573C138.284 93.3874 132.015 90.4501 125.34 90.045C126.742 94.785 127.5 99.8025 127.5 105V150H150Z" fill="#DADADA"/>
</svg>
