<svg width="150" height="150" viewBox="0 0 150 150" fill="none" xmlns="http://www.w3.org/2000/svg">
<path d="M55.9531 17.49C65.5531 6.8475 80.5981 0 97.5031 0C126.498 0 150.003 20.145 150.003 45C150.003 59.9175 141.528 73.14 128.493 81.33L127.503 81.9V112.275C127.503 113.768 127.057 115.227 126.223 116.466C125.388 117.704 124.203 118.665 122.819 119.226C121.435 119.787 119.915 119.921 118.454 119.613C116.993 119.305 115.657 118.567 114.618 117.495L106.068 108.69C114.086 99.21 118.803 87.57 118.803 74.9925C118.803 44.49 91.0681 19.53 55.9531 17.49Z" fill="#DADADA"/>
<path d="M62.8875 119.145L35.385 147.495C34.3456 148.567 33.0099 149.305 31.5488 149.613C30.0878 149.921 28.5679 149.787 27.1839 149.226C25.7999 148.665 24.6148 147.704 23.7803 146.466C22.9459 145.228 22.5001 143.768 22.5 142.275V111.9L21.51 111.33C8.4675 103.14 0 89.9175 0 75C0 50.145 23.505 30 52.5 30C81.495 30 105 50.145 105 75C105 95.445 89.0925 112.71 67.305 118.185C65.8451 118.56 64.3715 118.881 62.8875 119.145Z" fill="#DADADA"/>
</svg>
