<svg width="120" height="150" viewBox="0 0 120 150" fill="none" xmlns="http://www.w3.org/2000/svg">
<path d="M0 127.5V112.5H15V60C15 49.625 18.125 40.4075 24.375 32.3475C30.625 24.2875 38.75 19.005 48.75 16.5V11.25C48.75 8.12502 49.845 5.47002 52.035 3.28502C54.225 1.10002 56.88 0.00501705 60 1.70455e-05C63.12 -0.00498295 65.7775 1.09002 67.9725 3.28502C70.1675 5.48002 71.26 8.13502 71.25 11.25V16.5C81.25 19 89.375 24.2825 95.625 32.3475C101.875 40.4125 105 49.63 105 60V112.5H120V127.5H0ZM60 150C55.875 150 52.345 148.533 49.41 145.598C46.475 142.663 45.005 139.13 45 135H75C75 139.125 73.5325 142.658 70.5975 145.598C67.6625 148.538 64.13 150.005 60 150Z" fill="#DADADA"/>
</svg>
