<svg width="138" height="180" viewBox="0 0 138 180" fill="none" xmlns="http://www.w3.org/2000/svg">
<path d="M91.2208 21.9913C91.2886 24.9876 90.757 27.9673 89.6574 30.7553C88.5577 33.5434 86.9122 36.0837 84.8173 38.227C82.7224 40.3704 80.2204 42.0736 77.4582 43.2366C74.696 44.3997 71.7293 44.9992 68.7322 45C65.7351 45.0007 62.7681 44.4027 60.0053 43.241C57.2425 42.0793 54.7397 40.3774 52.6437 38.2351C50.5478 36.0928 48.9009 33.5533 47.7999 30.7658C46.6988 27.9783 46.1658 24.9989 46.2321 22.0026C46.3621 16.1238 48.7883 10.5294 52.9915 6.41716C57.1947 2.30489 62.8407 0.00147114 68.7209 7.04439e-07C74.6012 -0.00146973 80.2484 2.29912 84.4536 6.40929C88.6588 10.5195 91.0879 16.1126 91.2208 21.9913Z" fill="#DADADA"/>
<path d="M46.2201 179.491H63.0951V123.241H74.3451V179.491H91.2201V78.2413L91.2089 77.6563C91.2089 71.7951 93.3914 66.4401 96.9801 62.3563L133.858 25.0288C134.935 24.3924 135.852 23.5184 136.539 22.4734C137.227 21.4285 137.667 20.2403 137.826 18.9994C137.984 17.7586 137.857 16.498 137.454 15.3137C137.051 14.1295 136.383 13.0529 135.501 12.1661C134.619 11.2794 133.545 10.6059 132.363 10.1972C131.181 9.78835 129.921 9.65503 128.679 9.80734C127.438 9.95966 126.247 10.3936 125.199 11.076C124.151 11.7585 123.272 12.6714 122.63 13.7451L96.0576 40.5538C93.6726 42.9838 90.3426 44.4913 86.6639 44.4913H50.7651C47.0864 44.4913 43.7676 42.9838 41.3826 40.5538L15.2826 13.6663C14.6462 12.5894 13.7721 11.6722 12.7272 10.9845C11.6823 10.2968 10.494 9.85693 9.25321 9.69841C8.01239 9.53989 6.75174 9.66692 5.56749 10.0698C4.38323 10.4727 3.30665 11.1408 2.41992 12.0231C1.53318 12.9054 0.859716 13.9786 0.450918 15.1609C0.0421209 16.3431 -0.0912065 17.6031 0.0611101 18.8447C0.213427 20.0863 0.647362 21.2767 1.3298 22.3251C2.01224 23.3734 2.92515 24.252 3.99886 24.8938L40.4826 62.3788C44.0489 66.4401 46.2314 71.7838 46.2314 77.6563L46.2201 78.2751V179.491Z" fill="#DADADA"/>
</svg>
