<svg width="135" height="135" viewBox="0 0 135 135" fill="none" xmlns="http://www.w3.org/2000/svg">
<path d="M135 30V135H0V0H105L135 30ZM120 36.375L98.625 15H15V120H120V36.375ZM83.4375 105.938C87.8125 101.563 90 96.25 90 90C90 83.75 87.8125 78.4375 83.4375 74.0625C79.0625 69.6875 73.75 67.5 67.5 67.5C61.25 67.5 55.9375 69.6875 51.5625 74.0625C47.1875 78.4375 45 83.75 45 90C45 96.25 47.1875 101.563 51.5625 105.938C55.9375 110.312 61.25 112.5 67.5 112.5C73.75 112.5 79.0625 110.312 83.4375 105.938ZM22.5 52.5H90V22.5H22.5V52.5ZM15 36.375V120V15V36.375Z" fill="#DADADA"/>
</svg>
