<svg width="135" height="135" viewBox="0 0 135 135" fill="none" xmlns="http://www.w3.org/2000/svg">
<path d="M124.5 135L77.25 87.75C73.5 90.75 69.1875 93.125 64.3125 94.875C59.4375 96.625 54.25 97.5 48.75 97.5C35.125 97.5 23.595 92.78 14.16 83.34C4.725 73.9 0.00500397 62.37 3.96825e-06 48.75C-0.00499603 35.13 4.715 23.6 14.16 14.16C23.605 4.72 35.135 0 48.75 0C62.365 0 73.8975 4.72 83.3475 14.16C92.7975 23.6 97.515 35.13 97.5 48.75C97.5 54.25 96.625 59.4375 94.875 64.3125C93.125 69.1875 90.75 73.5 87.75 77.25L135 124.5L124.5 135ZM48.75 82.5C58.125 82.5 66.095 79.22 72.66 72.66C79.225 66.1 82.505 58.13 82.5 48.75C82.495 39.37 79.215 31.4025 72.66 24.8475C66.105 18.2925 58.135 15.01 48.75 15C39.365 14.99 31.3975 18.2725 24.8475 24.8475C18.2975 31.4225 15.015 39.39 15 48.75C14.985 58.11 18.2675 66.08 24.8475 72.66C31.4275 79.24 39.395 82.52 48.75 82.5Z" fill="#DADADA"/>
</svg>
