<svg width="151" height="150" viewBox="0 0 151 150" fill="none" xmlns="http://www.w3.org/2000/svg">
<path d="M54.75 150L51.75 126C50.125 125.375 48.595 124.625 47.16 123.75C45.725 122.875 44.3175 121.938 42.9375 120.938L20.625 130.312L0 94.6875L19.3125 80.0625C19.1875 79.1875 19.125 78.345 19.125 77.535V72.4725C19.125 71.6575 19.1875 70.8125 19.3125 69.9375L0 55.3125L20.625 19.6875L42.9375 29.0625C44.3125 28.0625 45.75 27.125 47.25 26.25C48.75 25.375 50.25 24.625 51.75 24L54.75 0H96L99 24C100.625 24.625 102.157 25.375 103.597 26.25C105.037 27.125 106.443 28.0625 107.813 29.0625L130.125 19.6875L150.75 55.3125L131.437 69.9375C131.562 70.8125 131.625 71.6575 131.625 72.4725V77.5275C131.625 78.3425 131.5 79.1875 131.25 80.0625L150.562 94.6875L129.937 130.312L107.813 120.938C106.438 121.938 105 122.875 103.5 123.75C102 124.625 100.5 125.375 99 126L96 150H54.75ZM75.75 101.25C83 101.25 89.1875 98.6875 94.3125 93.5625C99.4375 88.4375 102 82.25 102 75C102 67.75 99.4375 61.5625 94.3125 56.4375C89.1875 51.3125 83 48.75 75.75 48.75C68.375 48.75 62.155 51.3125 57.09 56.4375C52.025 61.5625 49.495 67.75 49.5 75C49.505 82.25 52.0375 88.4375 57.0975 93.5625C62.1575 98.6875 68.375 101.25 75.75 101.25Z" fill="#DADADA"/>
</svg>
