<svg width="144" height="144" viewBox="0 0 144 144" fill="none" xmlns="http://www.w3.org/2000/svg">
<path d="M72 13.5C87.5152 13.5 102.395 19.6634 113.366 30.6343C124.337 41.6051 130.5 56.4848 130.5 72C130.5 87.5152 124.337 102.395 113.366 113.366C102.395 124.337 87.5152 130.5 72 130.5V13.5ZM72 0C52.9044 0 34.5909 7.58569 21.0883 21.0883C7.58569 34.5909 0 52.9044 0 72C0 91.0956 7.58569 109.409 21.0883 122.912C34.5909 136.414 52.9044 144 72 144C91.0956 144 109.409 136.414 122.912 122.912C136.414 109.409 144 91.0956 144 72C144 52.9044 136.414 34.5909 122.912 21.0883C109.409 7.58569 91.0956 0 72 0Z" fill="#DADADA"/>
</svg>
